<svg xmlns="http://www.w3.org/2000/svg" viewBox="0 0 200 240" role="img" aria-label="Kärra KIF logotyp">
  <text x="100" y="20" text-anchor="middle" font-family="Arial Black,Arial,sans-serif" font-weight="900" font-size="17" fill="#1a1a1a" letter-spacing="2">KÄRRA KIF</text>
  <g fill="none" stroke="#1a1a1a" stroke-width="1.6">
    <ellipse cx="31" cy="78" rx="7" ry="3.2" transform="rotate(-35 31 78)"/>
    <ellipse cx="24" cy="93" rx="7" ry="3.2" transform="rotate(-25 24 93)"/>
    <ellipse cx="20" cy="109" rx="7" ry="3.2" transform="rotate(-15 20 109)"/>
    <ellipse cx="20" cy="125" rx="7" ry="3.2" transform="rotate(-5 20 125)"/>
    <ellipse cx="23" cy="141" rx="7" ry="3.2" transform="rotate(10 23 141)"/>
    <ellipse cx="31" cy="155" rx="7" ry="3.2" transform="rotate(22 31 155)"/>
    <ellipse cx="42" cy="166" rx="7" ry="3.2" transform="rotate(35 42 166)"/>
    <path d="M38 73 Q24 112 40 168" stroke-width="2"/>
    <ellipse cx="22" cy="86" rx="5.5" ry="2.8" transform="rotate(-40 22 86)"/>
    <ellipse cx="17" cy="102" rx="5.5" ry="2.8" transform="rotate(-28 17 102)"/>
    <ellipse cx="16" cy="118" rx="5.5" ry="2.8" transform="rotate(-12 16 118)"/>
    <ellipse cx="18" cy="134" rx="5.5" ry="2.8" transform="rotate(5 18 134)"/>
    <ellipse cx="24" cy="149" rx="5.5" ry="2.8" transform="rotate(20 24 149)"/>
  </g>
  <g fill="none" stroke="#1a1a1a" stroke-width="1.6" transform="translate(200,0) scale(-1,1)">
    <ellipse cx="31" cy="78" rx="7" ry="3.2" transform="rotate(-35 31 78)"/>
    <ellipse cx="24" cy="93" rx="7" ry="3.2" transform="rotate(-25 24 93)"/>
    <ellipse cx="20" cy="109" rx="7" ry="3.2" transform="rotate(-15 20 109)"/>
    <ellipse cx="20" cy="125" rx="7" ry="3.2" transform="rotate(-5 20 125)"/>
    <ellipse cx="23" cy="141" rx="7" ry="3.2" transform="rotate(10 23 141)"/>
    <ellipse cx="31" cy="155" rx="7" ry="3.2" transform="rotate(22 31 155)"/>
    <ellipse cx="42" cy="166" rx="7" ry="3.2" transform="rotate(35 42 166)"/>
    <path d="M38 73 Q24 112 40 168" stroke-width="2"/>
    <ellipse cx="22" cy="86" rx="5.5" ry="2.8" transform="rotate(-40 22 86)"/>
    <ellipse cx="17" cy="102" rx="5.5" ry="2.8" transform="rotate(-28 17 102)"/>
    <ellipse cx="16" cy="118" rx="5.5" ry="2.8" transform="rotate(-12 16 118)"/>
    <ellipse cx="18" cy="134" rx="5.5" ry="2.8" transform="rotate(5 18 134)"/>
    <ellipse cx="24" cy="149" rx="5.5" ry="2.8" transform="rotate(20 24 149)"/>
  </g>
  <path d="M82 178 Q100 188 118 178" fill="none" stroke="#1a1a1a" stroke-width="2"/>
  <path d="M90 178 L80 191 L96 183 Z" fill="#1a1a1a"/>
  <path d="M110 178 L120 191 L104 183 Z" fill="#1a1a1a"/>
  <path d="M56 42 L56 150 Q56 185 100 200 Q144 185 144 150 L144 42 Z" fill="#1a1a1a"/>
  <defs>
    <clipPath id="shield-clip">
      <path d="M59 45 L59 150 Q59 181 100 195 Q141 181 141 150 L141 45 Z"/>
    </clipPath>
  </defs>
  <rect x="59" y="45" width="82" height="75" fill="#F5C200" clip-path="url(#shield-clip)"/>
  <rect x="59" y="116" width="82" height="80" fill="#1A5FAD" clip-path="url(#shield-clip)"/>
  <polygon points="59,98 141,72 141,116 59,143" fill="#ffffff" clip-path="url(#shield-clip)"/>
  <text x="101" y="122" text-anchor="middle" font-family="Arial Black,Arial,sans-serif" font-weight="900" font-size="24" fill="#1a1a1a" transform="rotate(-15 101 115)">KKIF</text>
  <path d="M59 45 L59 150 Q59 181 100 195 Q141 181 141 150 L141 45 Z" fill="none" stroke="#1a1a1a" stroke-width="2.5"/>
  <text x="100" y="220" text-anchor="middle" font-family="Arial Black,Arial,sans-serif" font-weight="900" font-size="14" fill="#1a1a1a" letter-spacing="3">GÖTEBORG</text>
</svg>
